<svg xmlns="http://www.w3.org/2000/svg" width="512" height="512" viewBox="0 0 512 512">
  <defs>
    <linearGradient id="bg" x1="0" y1="0" x2="1" y2="1">
      <stop offset="0" stop-color="#667eea"/>
      <stop offset="1" stop-color="#764ba2"/>
    </linearGradient>
  </defs>
  <rect width="512" height="512" rx="110" fill="url(#bg)"/>
  <rect x="150" y="96" width="212" height="320" rx="28" fill="#ffffff"/>
  <rect x="178" y="128" width="156" height="60" rx="12" fill="#e8f0fe"/>
  <g fill="#667eea">
    <rect x="178" y="212" width="40" height="40" rx="9"/>
    <rect x="236" y="212" width="40" height="40" rx="9"/>
    <rect x="294" y="212" width="40" height="40" rx="9"/>
    <rect x="178" y="270" width="40" height="40" rx="9"/>
    <rect x="236" y="270" width="40" height="40" rx="9"/>
    <rect x="294" y="270" width="40" height="40" rx="9"/>
    <rect x="178" y="328" width="40" height="40" rx="9"/>
    <rect x="236" y="328" width="40" height="40" rx="9"/>
    <rect x="294" y="328" width="40" height="40" rx="9"/>
  </g>
  <path d="M300 40 L196 250 L268 250 L232 472 L360 226 L286 226 Z" fill="#ffd54a" stroke="#f5a623" stroke-width="10" stroke-linejoin="round"/>
</svg>
